<svg width="1024" height="1024" viewBox="0 0 1024 1024" fill="none" xmlns="http://www.w3.org/2000/svg">
  <rect width="1024" height="1024" rx="232" fill="#415F91"/>
  <circle cx="712" cy="304" r="86" fill="#9BB6E4" fill-opacity="0.92"/>
  <path d="M268 652C268 487.428 401.428 354 566 354C645.72 354 718.148 385.289 771.762 436.284C780.379 444.479 779.936 458.357 770.792 465.956L713.302 513.735C707.065 518.922 698.106 519.477 691.307 515.049C654.575 491.142 610.722 477 563.5 477C434.54 477 330 581.54 330 710.5C330 727.344 331.781 743.771 335.166 759.601C337.327 769.709 331.871 779.938 322.787 784.857L250.204 824.176C238.3 830.626 223.245 824.35 220.192 811.155C212.848 779.414 208.999 746.345 208.999 712.5C208.999 691.98 211.018 671.931 214.869 652.561C216.431 644.704 223.33 639 231.34 639H257C263.075 639 268 643.925 268 650V652Z" fill="#F3F7FF"/>
  <path d="M744.923 471.268C764.523 497.773 776 530.555 776 566C776 654.366 704.366 726 616 726C579.82 726 546.445 713.999 519.626 693.753C510.726 687.036 509.715 674.135 517.205 665.878L562.84 615.566C568.609 609.208 578.084 608.005 585.818 611.723C594.963 616.121 605.215 618.583 616 618.583C644.489 618.583 667.583 595.489 667.583 567C667.583 538.511 644.489 515.417 616 515.417C604.821 515.417 594.474 518.972 586.029 525.016C578.194 530.623 567.423 529.807 560.57 523.03L513.48 476.465C505.667 468.741 505.828 455.97 514.534 449.269C542.536 427.72 577.592 415 616 415C666.514 415 711.231 436.987 739.258 471.87L744.923 471.268Z" fill="#E7B75A"/>
  <path d="M695 610C762.931 610 818 665.069 818 733C818 742.389 817.018 751.551 815.151 760.39C813.715 767.185 807.717 772 800.771 772H624.431C616.85 772 610.803 765.594 611.24 758.026C614.508 701.307 661.507 656.308 718.855 656.308H753.538C740.34 645.506 723.464 639 705 639C693.13 639 681.814 641.692 671.704 646.498C664.082 650.122 654.965 648.562 649.137 642.379L612.679 603.683C604.857 595.381 606.265 582.038 616.232 576.566C639.706 563.677 666.668 556.308 695.355 556.308C714.923 556.308 733.689 559.74 751.106 566.034C759.903 569.211 764.196 579.288 760.907 588.043L751.042 614.302C749.161 619.308 744.382 622.615 739.035 622.615H695V610Z" fill="#F3F7FF"/>
  <path d="M698 342C731.137 342 758 315.137 758 282C758 248.863 731.137 222 698 222C664.863 222 638 248.863 638 282C638 315.137 664.863 342 698 342Z" fill="#F3F7FF"/>
  <path d="M778 300L870 274L796.399 342.696C791.158 347.59 782.934 348.598 776.591 345.189L748 329.818L778 300Z" fill="#E7B75A"/>
  <circle cx="720" cy="275" r="10" fill="#415F91"/>
</svg>
