<svg width="1024" height="1024" viewBox="0 0 1024 1024" fill="none" xmlns="http://www.w3.org/2000/svg">
  <circle cx="692" cy="246" r="70" fill="#9BB6E4" fill-opacity="0.92"/>
  <path d="M284 620C284 476.427 400.427 360 544 360C613.514 360 676.642 387.254 723.394 431.689C730.906 438.83 730.52 450.932 722.549 457.555L672.455 499.202C667.017 503.72 659.204 504.203 653.276 500.341C621.249 479.498 583.011 467.175 541.819 467.175C429.371 467.175 338.205 558.341 338.205 670.789C338.205 685.48 339.758 699.811 342.711 713.625C344.597 722.447 339.834 731.372 331.906 735.666L268.559 769.995C258.168 775.627 245.03 770.147 242.365 758.623C235.954 730.909 232.594 702.025 232.594 672.446C232.594 654.514 234.358 636.999 237.72 620.085C239.084 613.225 245.111 608.244 252.107 608.244H274.393C279.698 608.244 284 612.545 284 617.851V620Z" fill="#415F91"/>
  <path d="M720.691 462.218C737.812 485.364 747.834 513.988 747.834 544.953C747.834 622.103 685.288 684.649 608.138 684.649C576.546 684.649 547.406 674.168 523.988 656.484C516.216 650.62 515.333 639.357 521.877 632.142L561.733 588.194C566.772 582.639 575.047 581.588 581.804 584.836C589.793 588.679 598.751 590.831 608.178 590.831C633.071 590.831 653.255 570.648 653.255 545.754C653.255 520.861 633.071 500.677 608.178 500.677C598.411 500.677 589.369 503.783 581.991 509.066C575.143 513.966 565.728 513.252 559.738 507.332L518.589 466.643C511.761 459.893 511.902 448.731 519.51 442.873C543.975 424.056 574.602 412.953 608.138 412.953C652.255 412.953 691.302 432.153 715.783 462.744L720.691 462.218Z" fill="#E7B75A"/>
  <path d="M677.328 590.541C736.659 590.541 784.755 638.637 784.755 697.968C784.755 706.17 783.897 714.173 782.266 721.896C781.011 727.832 775.77 732.037 769.701 732.037H615.649C609.022 732.037 603.735 726.438 604.117 719.822C606.975 670.261 648.027 630.951 698.14 630.951H728.46C716.918 621.502 702.155 615.81 685.993 615.81C675.6 615.81 665.692 618.168 656.841 622.377C650.169 625.55 642.188 624.184 637.084 618.77L605.146 584.876C598.294 577.605 599.527 565.917 608.259 561.124C628.829 549.831 652.455 543.374 677.638 543.374C694.82 543.374 711.292 546.386 726.579 551.912C734.298 554.7 738.066 563.541 735.178 571.221L726.52 594.253C724.868 598.647 720.673 601.55 715.983 601.55H677.328V590.541Z" fill="#415F91"/>
  <path d="M681.693 277.571C710.634 277.571 734.095 254.11 734.095 225.169C734.095 196.229 710.634 172.768 681.693 172.768C652.753 172.768 629.292 196.229 629.292 225.169C629.292 254.11 652.753 277.571 681.693 277.571Z" fill="#415F91"/>
  <path d="M751.59 240.898L831.947 218.182L767.629 278.196C763.049 282.473 755.861 283.353 750.319 280.373L725.33 266.935L751.59 240.898Z" fill="#E7B75A"/>
  <circle cx="700.942" cy="219.053" r="8.733" fill="#F3F7FF"/>
</svg>
